<svg xmlns="http://www.w3.org/2000/svg" viewBox="0 0 800 120">
  <rect width="800" height="120" fill="#000000"/>
  <rect x="40" y="30" width="30" height="90" fill="#ffffff" opacity="0.6"/>
  <rect x="90" y="10" width="30" height="110" fill="#ffffff" opacity="0.9"/>
  <rect x="140" y="50" width="30" height="70" fill="#ffffff" opacity="0.5"/>
  <rect x="190" y="5" width="30" height="115" fill="#ffffff"/>
  <rect x="240" y="40" width="30" height="80" fill="#ffffff" opacity="0.8"/>
  <rect x="290" y="60" width="30" height="60" fill="#ffffff" opacity="0.4"/>
  <rect x="340" y="15" width="30" height="105" fill="#ffffff" opacity="0.9"/>
  <rect x="390" y="45" width="30" height="75" fill="#ffffff" opacity="0.7"/>
  <rect x="440" y="25" width="30" height="95" fill="#ffffff" opacity="0.9"/>
  <rect x="490" y="55" width="30" height="65" fill="#ffffff" opacity="0.5"/>
  <rect x="540" y="8" width="30" height="112" fill="#ffffff"/>
  <rect x="590" y="35" width="30" height="85" fill="#ffffff" opacity="0.8"/>
  <rect x="640" y="20" width="30" height="100" fill="#ffffff" opacity="0.9"/>
  <rect x="690" y="50" width="30" height="70" fill="#ffffff" opacity="0.6"/>
  <rect x="740" y="12" width="30" height="108" fill="#ffffff" opacity="0.9"/>
</svg>